<svg width="512" height="512" viewBox="0 0 512 512" fill="none" xmlns="http://www.w3.org/2000/svg">
<path d="M0 100C0 44.7715 44.7715 0 100 0H412C467.228 0 512 44.7715 512 100V412C512 467.228 467.228 512 412 512H100C44.7715 512 0 467.228 0 412V100Z" fill="#FFC04C"/>
<path d="M97.0401 198.884L20 246.724V266.495L97.0401 314.508V292.838L38.6679 256.756L97.0401 220.618V198.884Z" fill="#050041"/>
<path d="M414.591 220.614L472.963 256.752L414.591 292.834V314.504L491.631 266.491V246.72L414.591 198.88V220.614Z" fill="#050041"/>
<path d="M389.468 176L346.885 336H366.707L409.117 176H389.468Z" fill="#050041"/>
<path d="M154.258 176.402L108.449 317.207H139.853L148.383 285.795H193.673L201.796 317.207H235.276L191.542 176.402H154.258ZM155.525 261.414L172.351 204.126L187.275 261.414H155.525Z" fill="#050041"/>
<path d="M285.347 293.406V257.15H330.638V233.578H285.347V199.862H333.232V176.402H253.079V317.211H335.48V293.406H285.347Z" fill="#050041"/>
</svg>
